<?xml version="1.0" encoding="UTF-8"?>
<svg width="56px" height="56px" viewBox="0 0 56 56" version="1.1" xmlns="http://www.w3.org/2000/svg" xmlns:xlink="http://www.w3.org/1999/xlink">
    <!-- Generator: sketchtool 53.2 (72643) - https://sketchapp.com -->
    <title>B3F2F88E-01C5-41CE-AEAC-35B044DF9A8E</title>
    <desc>Created with sketchtool.</desc>
    <defs>
        <filter x="-25.0%" y="-25.0%" width="150.0%" height="150.0%" filterUnits="objectBoundingBox" id="filter-1">
            <feOffset dx="0" dy="2" in="SourceAlpha" result="shadowOffsetOuter1"></feOffset>
            <feGaussianBlur stdDeviation="2" in="shadowOffsetOuter1" result="shadowBlurOuter1"></feGaussianBlur>
            <feColorMatrix values="0 0 0 0 0   0 0 0 0 0   0 0 0 0 0  0 0 0 0.5 0" type="matrix" in="shadowBlurOuter1" result="shadowMatrixOuter1"></feColorMatrix>
            <feMerge>
                <feMergeNode in="shadowMatrixOuter1"></feMergeNode>
                <feMergeNode in="SourceGraphic"></feMergeNode>
            </feMerge>
        </filter>
    </defs>
    <g id="Page-1" stroke="none" stroke-width="1" fill="none" fill-rule="evenodd">
        <g id="CollectionView" transform="translate(-592.000000, -378.000000)">
            <g id="Body" transform="translate(120.000000, 364.000000)">
                <g id="Contents" transform="translate(260.000000, 0.000000)">
                    <g id="BookCover">
                        <g id="AddIcon.svg" filter="url(#filter-1)" transform="translate(216.000000, 16.000000)">
                            <circle id="Oval" fill="#006BFF" fill-rule="nonzero" cx="24" cy="24" r="24"></circle>
                            <path d="M24,14 C22.675,14 21.6,15.075 21.6,16.4 L21.6,21.6 L16.4,21.6 C15.075,21.6 14,22.675 14,24 C14,25.325 15.075,26.4 16.4,26.4 L21.6,26.4 L21.6,31.6 C21.6,32.925 22.675,34 24,34 C25.325,34 26.4,32.925 26.4,31.6 L26.4,26.4 L31.6,26.4 C32.925,26.4 34,25.325 34,24 C34,22.675 32.925,21.6 31.6,21.6 L26.4,21.6 L26.4,16.4 C26.4,15.075 25.325,14 24,14 Z" id="Fill-1" fill="#FFFFFF"></path>
                        </g>
                    </g>
                </g>
            </g>
        </g>
    </g>
</svg>