<?xml version="1.0" encoding="UTF-8"?>
<svg width="180px" height="180px" viewBox="0 0 180 180" version="1.1" xmlns="http://www.w3.org/2000/svg" xmlns:xlink="http://www.w3.org/1999/xlink">
    <!-- Generator: sketchtool 53.2 (72643) - https://sketchapp.com -->
    <title>4A54B64E-47F2-40B3-B0F7-62D5122D8B2E</title>
    <desc>Created with sketchtool.</desc>
    <g id="Page-1" stroke="none" stroke-width="1" fill="none" fill-rule="evenodd">
        <g id="16:9-Desktop" transform="translate(-120.000000, -74.000000)">
            <g id="Header">
                <g id="Group" transform="translate(120.000000, 64.000000)">
                    <g id="Logo.svg" transform="translate(0.000000, 10.000000)">
                        <circle id="Oval" fill="#404040" fill-rule="nonzero" cx="90" cy="90" r="90"></circle>
                        <g id="Group-6" transform="translate(60.000000, 52.000000)" fill="#FFFFFF">
                            <path d="M0.710294118,5.9013 L0.710294118,55.1630667 C2.16476471,53.9115311 4.05361765,53.1468989 6.12158824,53.1468989 L8.57911765,53.1468989 L8.57911765,8.77777778e-05 L6.64208824,8.77777778e-05 C3.37120588,8.77777778e-05 0.710294118,2.64711444 0.710294118,5.90112444 L0.710294118,5.9013 Z" id="Fill-1"></path>
                            <path d="M32.0541176,66.0764778 L32.0541176,73.1947289 L53.3585294,73.1947289 C56.6294118,73.1947289 59.2903235,70.5477022 59.2903235,67.2936922 L59.2903235,64.06031 C57.8358529,65.3118456 55.947,66.0764778 53.8790294,66.0764778 L32.0541176,66.0764778 Z" id="Fill-2"></path>
                            <path d="M53.3585294,0 L11.4538235,0 L11.4538235,53.1468111 L53.8791176,53.1468111 C56.8639412,53.1468111 59.2904118,50.7329222 59.2904118,47.7635756 L59.2904118,5.90147556 C59.2904118,2.64755333 56.6295882,0.000438888889 53.3586176,0.000438888889 L53.3585294,0 Z" id="Fill-3"></path>
                            <path d="M13.2838235,56.0066111 L6.12158824,56.0066111 C3.32973529,56.0066111 1.02397059,58.1222311 0.741264706,60.8275422 C0.720582353,61.0127007 0.710241176,61.2012824 0.710241176,61.3898642 L0.710241176,67.2943242 C0.710241176,70.5482464 3.37106471,73.1953609 6.64203529,73.1953609 L12.2498294,73.1953609 L12.2498294,66.0771098 L10.0542706,66.0771098 C9.26152941,66.0771098 8.61700588,65.4359194 8.61700588,64.6472976 C8.61700588,63.8586669 9.26153824,63.2174853 10.0542706,63.2174853 L53.8789765,63.2174853 C56.8638,63.2174853 59.2902706,60.8035964 59.2902706,57.8342498 L59.2902706,53.9905487 C57.8358,55.2420842 55.9469471,56.0067164 53.8789765,56.0067164 L13.2838235,56.0066111 Z" id="Fill-4"></path>
                            <path d="M22.845,75.1526974 L29.1800294,78.9998218 L29.1800294,66.0763022 L15.1241471,66.0763022 L15.1241471,78.9208227 L21.3488824,75.1525218 C21.8072912,74.8747841 22.3863529,74.8747841 22.8447353,75.1525218 L22.845,75.1526974 Z" id="Fill-5"></path>
                        </g>
                    </g>
                </g>
            </g>
        </g>
    </g>
</svg>